<svg xmlns="http://www.w3.org/2000/svg" xmlns:xlink="http://www.w3.org/1999/xlink" id="Layer_1" x="0px" y="0px" viewBox="0 0 206 154" style="enable-background:new 0 0 206 154;" xml:space="preserve"><style type="text/css">	.st0{fill:#66F1C6;}	.st1{fill:#66EDA8;}	.st2{fill:#303867;}	.st3{fill:#FDFDFD;}	.st4{fill:#FFFFFF;}</style><g>	<path class="st0" d="M127.3,43.9l-0.6,8.2h-2.1l0.6-8.2H127.3z"></path>	<path class="st0" d="M128,34.1l-0.6,8.1h-2.1l0.6-8.1H128z"></path>	<path class="st1" d="M121.8,91.1l-0.6,8.2h2.1l0.6-8.2H121.8z M122.5,81.3l-0.6,8.1h2.1l0.6-8.1H122.5z M54.9,23.5l-2.4,33.9  c2.8-2.3,2.8-2.3,2.8-2.3c3.2-2.6,5.7-3.6,8.9-3.6c2.9,0,5.6,1.3,7.9,3.6c3.6,3.9,5.5,10.3,5,17.3C76.7,77.9,74.9,83.1,72,87  c-3,4-6.7,6.2-10.6,6.2c-2.3,0-4.5-0.8-6.4-2.3l0,0l-0.1-0.1L54,90l0,0l-3.5-3.2l-2.1,29.5h70l6.6-92.6H54.9V23.5z M122.5,81.3  l-0.6,8.1h2.1l0.6-8.1H122.5z M121.8,91.1l-0.6,8.2h2.1l0.6-8.2H121.8z M49,83.2L49,83.2L49,83.2L49,83.2z M121.8,91.1l-0.6,8.2  h2.1l0.6-8.2H121.8z M122.5,81.3l-0.6,8.1h2.1l0.6-8.1H122.5z M54.9,23.5l-2.4,33.9c2.8-2.3,2.8-2.3,2.8-2.3  c3.2-2.6,5.7-3.6,8.9-3.6c2.9,0,5.6,1.3,7.9,3.6c3.6,3.9,5.5,10.3,5,17.3C76.7,77.9,74.9,83.1,72,87c-3,4-6.7,6.2-10.6,6.2  c-2.3,0-4.5-0.8-6.4-2.3l0,0l-0.1-0.1L54,90l0,0l-3.5-3.2l-2.1,29.5h70l6.6-92.6H54.9V23.5z M54.9,23.5l-2.4,33.9  c2.8-2.3,2.8-2.3,2.8-2.3c3.2-2.6,5.7-3.6,8.9-3.6c2.9,0,5.6,1.3,7.9,3.6c3.6,3.9,5.5,10.3,5,17.3C76.7,77.9,74.9,83.1,72,87  c-3,4-6.7,6.2-10.6,6.2c-2.3,0-4.5-0.8-6.4-2.3l0,0l-0.1-0.1L54,90l0,0l-3.5-3.2l-2.1,29.5h70l6.6-92.6H54.9V23.5z M122.5,81.3  l-0.6,8.1h2.1l0.6-8.1H122.5z M121.8,91.1l-0.6,8.2h2.1l0.6-8.2H121.8z M49,83.2L49,83.2L49,83.2L49,83.2z M49,83.2L49,83.2  L49,83.2L49,83.2z M121.8,91.1l-0.6,8.2h2.1l0.6-8.2H121.8z M122.5,81.3l-0.6,8.1h2.1l0.6-8.1H122.5z M54.9,23.5l-2.4,33.9  c2.8-2.3,2.8-2.3,2.8-2.3c3.2-2.6,5.7-3.6,8.9-3.6c2.9,0,5.6,1.3,7.9,3.6c3.6,3.9,5.5,10.3,5,17.3C76.7,77.9,74.9,83.1,72,87  c-3,4-6.7,6.2-10.6,6.2c-2.3,0-4.5-0.8-6.4-2.3l0,0l-0.1-0.1L54,90l0,0l-3.5-3.2l-2.1,29.5h70l6.6-92.6H54.9V23.5z M54.9,23.5  l-2.4,33.9c2.8-2.3,2.8-2.3,2.8-2.3c3.2-2.6,5.7-3.6,8.9-3.6c2.9,0,5.6,1.3,7.9,3.6c3.6,3.9,5.5,10.3,5,17.3  C76.7,77.9,74.9,83.1,72,87c-3,4-6.7,6.2-10.6,6.2c-2.3,0-4.5-0.8-6.4-2.3l0,0l-0.1-0.1L54,90l0,0l-3.5-3.2l-2.1,29.5h70l6.6-92.6  H54.9V23.5z M122.5,81.3l-0.6,8.1h2.1l0.6-8.1H122.5z M121.8,91.1l-0.6,8.2h2.1l0.6-8.2H121.8z M49,83.2L49,83.2L49,83.2L49,83.2z   M49,83.2L49,83.2L49,83.2L49,83.2z M121.8,91.1l-0.6,8.2h2.1l0.6-8.2H121.8z M122.5,81.3l-0.6,8.1h2.1l0.6-8.1H122.5z M54.9,23.5  l-2.4,33.9c2.8-2.3,2.8-2.3,2.8-2.3c3.2-2.6,5.7-3.6,8.9-3.6c2.9,0,5.6,1.3,7.9,3.6c3.6,3.9,5.5,10.3,5,17.3  C76.7,77.9,74.9,83.1,72,87c-3,4-6.7,6.2-10.6,6.2c-2.3,0-4.5-0.8-6.4-2.3l0,0l-0.1-0.1L54,90l0,0l-3.5-3.2l-2.1,29.5h70l6.6-92.6  H54.9V23.5z M54.9,23.5l-2.4,33.9c2.8-2.3,2.8-2.3,2.8-2.3c3.2-2.6,5.7-3.6,8.9-3.6c2.9,0,5.6,1.3,7.9,3.6c3.6,3.9,5.5,10.3,5,17.3  C76.7,77.9,74.9,83.1,72,87c-3,4-6.7,6.2-10.6,6.2c-2.3,0-4.5-0.8-6.4-2.3l0,0l-0.1-0.1L54,90l0,0l-3.5-3.2l-2.1,29.5h70l6.6-92.6  H54.9V23.5z M122.5,81.3l-0.6,8.1h2.1l0.6-8.1H122.5z M121.8,91.1l-0.6,8.2h2.1l0.6-8.2H121.8z M49,83.2L49,83.2L49,83.2L49,83.2z   M49,83.2L49,83.2L49,83.2L49,83.2z M121.8,91.1l-0.6,8.2h2.1l0.6-8.2H121.8z M122.5,81.3l-0.6,8.1h2.1l0.6-8.1H122.5z M54.9,23.5  l-2.4,33.9c2.8-2.3,2.8-2.3,2.8-2.3c3.2-2.6,5.7-3.6,8.9-3.6c2.9,0,5.6,1.3,7.9,3.6c3.6,3.9,5.5,10.3,5,17.3  C76.7,77.9,74.9,83.1,72,87c-3,4-6.7,6.2-10.6,6.2c-2.3,0-4.5-0.8-6.4-2.3l0,0l-0.1-0.1L54,90l0,0l-3.5-3.2l-2.1,29.5h70l6.6-92.6  H54.9V23.5z M54.9,23.5l-2.4,33.9c2.8-2.3,2.8-2.3,2.8-2.3c3.2-2.6,5.7-3.6,8.9-3.6c2.9,0,5.6,1.3,7.9,3.6c3.6,3.9,5.5,10.3,5,17.3  C76.7,77.9,74.9,83.1,72,87c-3,4-6.7,6.2-10.6,6.2c-2.3,0-4.5-0.8-6.4-2.3l0,0l-0.1-0.1L54,90l0,0l-3.5-3.2l-2.1,29.5h70l6.6-92.6  H54.9V23.5z M121.9,89.5h2.1l0.6-8.1h-2.1L121.9,89.5z M121.2,99.3h2.1l0.6-8.2h-2.1L121.2,99.3z M49,83.2L49,83.2L49,83.2L49,83.2  z M40.7,9.9l-9,126.4l-0.1,0.9l-0.7,9.2h6l6.9-10h74.7l5.4,10h13.7l6.9-10h32.2l5.4,10h6.1l0.7-10l0,0l9-126.4L40.7,9.9L40.7,9.9z   M128.2,53.7h-3.8l-1.9,26h3.8l-1.5,21.2H121l-1.2,16.9H46.6l2.3-32.5l-3.7-3.4l0,0c-0.6-0.4-1.2-0.9-1.8-1.5  c-1.9-2.1-2.9-5-2.7-8.1c0.2-3.6,2-6.9,4.8-8.9l-0.1-0.1c2.2-1.9,4-3.3,5.3-4.4l2.6-37h73.3l-0.8,10.6h3.8L128.2,53.7z M52.5,57.4  c2.8-2.3,2.8-2.3,2.8-2.3c3.2-2.6,5.7-3.6,8.9-3.6c2.9,0,5.6,1.3,7.9,3.6c3.6,3.9,5.5,10.3,5,17.3C76.7,77.9,74.9,83.1,72,87  c-3,4-6.7,6.2-10.6,6.2c-2.3,0-4.5-0.8-6.4-2.3l0,0l-0.1-0.1L54,90l0,0l-3.5-3.2l-2.1,29.5h70l6.6-92.6H55L52.5,57.4z M121.9,89.5  h2.1l0.6-8.1h-2.1L121.9,89.5z M121.2,99.3h2.1l0.6-8.2h-2.1L121.2,99.3z M49,83.2L49,83.2L49,83.2L49,83.2z M49,83.2L49,83.2  L49,83.2L49,83.2z M121.8,91.1l-0.6,8.2h2.1l0.6-8.2H121.8z M122.5,81.3l-0.6,8.1h2.1l0.6-8.1H122.5z M54.9,23.5l-2.4,33.9  c2.8-2.3,2.8-2.3,2.8-2.3c3.2-2.6,5.7-3.6,8.9-3.6c2.9,0,5.6,1.3,7.9,3.6c3.6,3.9,5.5,10.3,5,17.3C76.7,77.9,74.9,83.1,72,87  c-3,4-6.7,6.2-10.6,6.2c-2.3,0-4.5-0.8-6.4-2.3l0,0l-0.1-0.1L54,90l0,0l-3.5-3.2l-2.1,29.5h70l6.6-92.6H54.9V23.5z M54.9,23.5  l-2.4,33.9c2.8-2.3,2.8-2.3,2.8-2.3c3.2-2.6,5.7-3.6,8.9-3.6c2.9,0,5.6,1.3,7.9,3.6c3.6,3.9,5.5,10.3,5,17.3  C76.7,77.9,74.9,83.1,72,87c-3,4-6.7,6.2-10.6,6.2c-2.3,0-4.5-0.8-6.4-2.3l0,0l-0.1-0.1L54,90l0,0l-3.5-3.2l-2.1,29.5h70l6.6-92.6  H54.9V23.5z M122.5,81.3l-0.6,8.1h2.1l0.6-8.1H122.5z M121.8,91.1l-0.6,8.2h2.1l0.6-8.2H121.8z M49,83.2L49,83.2L49,83.2L49,83.2z   M49,83.2L49,83.2L49,83.2L49,83.2z M121.8,91.1l-0.6,8.2h2.1l0.6-8.2H121.8z M122.5,81.3l-0.6,8.1h2.1l0.6-8.1H122.5z M54.9,23.5  l-2.4,33.9c2.8-2.3,2.8-2.3,2.8-2.3c3.2-2.6,5.7-3.6,8.9-3.6c2.9,0,5.6,1.3,7.9,3.6c3.6,3.9,5.5,10.3,5,17.3  C76.7,77.9,74.9,83.1,72,87c-3,4-6.7,6.2-10.6,6.2c-2.3,0-4.5-0.8-6.4-2.3l0,0l-0.1-0.1L54,90l0,0l-3.5-3.2l-2.1,29.5h70l6.6-92.6  H54.9V23.5z M54.9,23.5l-2.4,33.9c2.8-2.3,2.8-2.3,2.8-2.3c3.2-2.6,5.7-3.6,8.9-3.6c2.9,0,5.6,1.3,7.9,3.6c3.6,3.9,5.5,10.3,5,17.3  C76.7,77.9,74.9,83.1,72,87c-3,4-6.7,6.2-10.6,6.2c-2.3,0-4.5-0.8-6.4-2.3l0,0l-0.1-0.1L54,90l0,0l-3.5-3.2l-2.1,29.5h70l6.6-92.6  H54.9V23.5z M122.5,81.3l-0.6,8.1h2.1l0.6-8.1H122.5z M121.8,91.1l-0.6,8.2h2.1l0.6-8.2H121.8z M49,83.2L49,83.2L49,83.2L49,83.2z   M49,83.2L49,83.2L49,83.2L49,83.2z M121.8,91.1l-0.6,8.2h2.1l0.6-8.2H121.8z M122.5,81.3l-0.6,8.1h2.1l0.6-8.1H122.5z M54.9,23.5  l-2.4,33.9c2.8-2.3,2.8-2.3,2.8-2.3c3.2-2.6,5.7-3.6,8.9-3.6c2.9,0,5.6,1.3,7.9,3.6c3.6,3.9,5.5,10.3,5,17.3  C76.7,77.9,74.9,83.1,72,87c-3,4-6.7,6.2-10.6,6.2c-2.3,0-4.5-0.8-6.4-2.3l0,0l-0.1-0.1L54,90l0,0l-3.5-3.2l-2.1,29.5h70l6.6-92.6  H54.9V23.5z M54.9,23.5l-2.4,33.9c2.8-2.3,2.8-2.3,2.8-2.3c3.2-2.6,5.7-3.6,8.9-3.6c2.9,0,5.6,1.3,7.9,3.6c3.6,3.9,5.5,10.3,5,17.3  C76.7,77.9,74.9,83.1,72,87c-3,4-6.7,6.2-10.6,6.2c-2.3,0-4.5-0.8-6.4-2.3l0,0l-0.1-0.1L54,90l0,0l-3.5-3.2l-2.1,29.5h70l6.6-92.6  H54.9V23.5z M122.5,81.3l-0.6,8.1h2.1l0.6-8.1H122.5z M121.8,91.1l-0.6,8.2h2.1l0.6-8.2H121.8z M49,83.2L49,83.2L49,83.2L49,83.2z   M49,83.2L49,83.2L49,83.2L49,83.2z M121.8,91.1l-0.6,8.2h2.1l0.6-8.2H121.8z M122.5,81.3l-0.6,8.1h2.1l0.6-8.1H122.5z M54.9,23.5  l-2.4,33.9c2.8-2.3,2.8-2.3,2.8-2.3c3.2-2.6,5.7-3.6,8.9-3.6c2.9,0,5.6,1.3,7.9,3.6c3.6,3.9,5.5,10.3,5,17.3  C76.7,77.9,74.9,83.1,72,87c-3,4-6.7,6.2-10.6,6.2c-2.3,0-4.5-0.8-6.4-2.3l0,0l-0.1-0.1L54,90l0,0l-3.5-3.2l-2.1,29.5h70l6.6-92.6  H54.9V23.5z M54.9,23.5l-2.4,33.9c2.8-2.3,2.8-2.3,2.8-2.3c3.2-2.6,5.7-3.6,8.9-3.6c2.9,0,5.6,1.3,7.9,3.6c3.6,3.9,5.5,10.3,5,17.3  C76.7,77.9,74.9,83.1,72,87c-3,4-6.7,6.2-10.6,6.2c-2.3,0-4.5-0.8-6.4-2.3l0,0l-0.1-0.1L54,90l0,0l-3.5-3.2l-2.1,29.5h70l6.6-92.6  H54.9V23.5z M122.5,81.3l-0.6,8.1h2.1l0.6-8.1H122.5z M121.8,91.1l-0.6,8.2h2.1l0.6-8.2H121.8z M54.9,23.5l-2.4,33.9  c2.8-2.3,2.8-2.3,2.8-2.3c3.2-2.6,5.7-3.6,8.9-3.6c2.9,0,5.6,1.3,7.9,3.6c3.6,3.9,5.5,10.3,5,17.3C76.7,77.9,74.9,83.1,72,87  c-3,4-6.7,6.2-10.6,6.2c-2.3,0-4.5-0.8-6.4-2.3l0,0l-0.1-0.1L54,90l0,0l-3.5-3.2l-2.1,29.5h70l6.6-92.6H54.9V23.5z"></path>	<path class="st2" d="M39.2,8.3l-9.8,138.1H6.2v1.6h183.5l0,0l10-139.7L39.2,8.3L39.2,8.3z M38.9,146.4l5.8-8.4h34.7l4.6,8.4H38.9z   M101.4,146.4l5.8-8.4h10.3l4.6,8.4H101.4z M123.9,146.3l-5.4-10H43.8l-6.9,10h-6l0.7-9.2l0.1-0.9l9-126.4H198l-9,126.4l0,0  l-0.7,10h-6.1l-5.4-10h-32.2l-6.9,10L123.9,146.3L123.9,146.3z M139.6,146.4l5.8-8.4h30.4l4.6,8.4H139.6z"></path>	<path class="st2" d="M128.2,53.7l1.5-21.2h-3.8l0.8-10.6H53.4l-2.6,37c-1.3,1.1-3.1,2.5-5.3,4.4l0.1,0.1c-2.7,2-4.5,5.3-4.8,8.9  c-0.2,3.1,0.8,6,2.7,8.1c0.5,0.6,1.1,1.1,1.8,1.5l0,0l3.7,3.4l-2.3,32.5H120l1.2-16.9h3.8l1.5-21.2h-3.8l1.9-26  C124.6,53.7,128.2,53.7,128.2,53.7z M125.8,34.1h2.1l-0.6,8.1h-2.1L125.8,34.1z M127.3,43.9l-0.6,8.2h-2.1l0.6-8.2H127.3z M49,83.2  c0.3,0,0.5,0,0.8,0c0.1,0,0.1,0,0.2,0c0.2,0,0.4,0,0.7,0c2.5-0.2,4.7-1.4,6.5-3.2c1.9-2,3.2-4.7,3.4-7.7c0.2-3.1-0.8-6.1-2.8-8.1  c-1.5-1.6-3.4-2.6-5.5-2.8c-0.3,0-0.6,0-0.9,0c-0.1,0-0.1,0-0.2,0c-0.2,0-0.4,0-0.5,0s-0.3,0-0.4,0c0.1-0.1,0.3-0.2,0.4-0.4  c0.6-0.5,1.2-1,1.7-1.4c2.1-1.7,3.9-3.3,4-3.3c2.9-2.4,5.1-3.3,7.9-3.3c1,0,2,0.2,3,0.6l-6.1,5.3l1.1,1.2l6.6-5.7  c0.8,0.5,1.5,1.1,2.1,1.8c1.3,1.4,2.4,3.2,3.2,5.3l-4.9,1.6l0.5,1.5l5-1.6c0.7,2.5,1.1,5.3,1,8.2h-8.9v1.6h8.8  c-0.2,2.7-0.9,5.3-1.8,7.7l-5-1.7l-0.5,1.5L73,82c-1.3,2.8-3,5.2-5,6.8l-6.3-5.5l-1.1,1.2l6,5.2c-1.7,1.1-3.5,1.7-5.4,1.7  c-2,0-3.8-0.7-5.5-2l-1.2-1.1l0,0l0,0l-4.1-3.8L49,83.2L49,83.2L49,83.2z M123.3,99.3h-2.1l0.6-8.2h2.1L123.3,99.3z M124.6,81.3  l-0.6,8.1h-2.1l0.6-8.1H124.6z M118.3,116.2h-70l2.1-29.5l3.5,3.2l0,0l0.9,0.8l0.1,0.1l0,0c1.9,1.5,4.1,2.3,6.4,2.3  c3.9,0,7.6-2.2,10.6-6.2c2.9-3.9,4.7-9.1,5.1-14.6c0.5-6.9-1.4-13.4-5-17.3c-2.2-2.4-4.9-3.6-7.9-3.6c-3.2,0-5.7,1-8.9,3.6  c0,0,0,0-2.8,2.3l2.4-33.9h70L118.3,116.2z"></path>	<path class="st3" d="M66.6,71.2v1.6h8.8c-0.2,2.7-0.9,5.3-1.8,7.7l-5-1.7l-0.5,1.5L73,82c-1.3,2.8-3,5.2-5,6.8l-6.3-5.5l-1.1,1.2  l6,5.2c-1.7,1.1-3.5,1.7-5.4,1.7c-2,0-3.8-0.7-5.5-2l-1.2-1.1l0,0l0,0l-4.1-3.8L49,83.2l0,0c0.3,0,0.5,0,0.8,0c0.1,0,0.1,0,0.2,0  c0.2,0,0.4,0,0.7,0c2.5-0.2,4.7-1.4,6.5-3.2c1.9-2,3.2-4.7,3.4-7.7c0.2-3.1-0.8-6.1-2.8-8.1c-1.5-1.6-3.4-2.6-5.5-2.8  c-0.3,0-0.6,0-0.9,0c-0.1,0-0.1,0-0.2,0c-0.2,0-0.4,0-0.5,0s-0.3,0-0.4,0c0.1-0.1,0.3-0.2,0.4-0.4c0.6-0.5,1.2-1,1.7-1.4  c2.1-1.7,3.9-3.3,4-3.3c2.9-2.4,5.1-3.3,7.9-3.3c1,0,2,0.2,3,0.6l-6.1,5.3l1.1,1.2l6.6-5.7c0.8,0.5,1.5,1.1,2.1,1.8  c1.3,1.4,2.4,3.2,3.2,5.3l-4.9,1.6l0.5,1.5l5-1.6c0.7,2.5,1.1,5.3,1,8.2H66.6z"></path>	<path class="st4" d="M49,83.2L49,83.2L49,83.2L49,83.2z"></path>	<path class="st2" d="M139.2,17.7l-8.8,123.2l1.6,0.1l8.8-123.2L139.2,17.7z"></path>	<path class="st2" d="M95.2,47.8l-0.9-1.4c2.7-1.7,1.3-5.7-0.3-8.7l1.4-0.8C99,43.5,97.2,46.5,95.2,47.8z"></path>	<path class="st2" d="M104.8,40.5c-3.3,0-5.2-3.1-6.6-5.3l1.4-0.9c2.5,3.9,4.2,5.5,7.4,4l0.7,1.5C106.6,40.3,105.7,40.5,104.8,40.5z  "></path>	<path class="st2" d="M108.5,52.8c-1.6-2-2.4-4.5-2.1-6.5c0.2-1.6,1.1-3,2.4-4l1,1.3c-1,0.7-1.6,1.7-1.8,2.9  c-0.2,1.7,0.4,3.7,1.8,5.3L108.5,52.8z"></path>	<path class="st2" d="M104.4,55.1c-2.4-3.8-4.2-5.4-7.7-3.7L96,50c5-2.5,7.7,0.9,9.8,4.2L104.4,55.1z"></path>	<path class="st2" d="M27.5,31.7l4.7,12.9l-8.5-10.8c-2.2-2.9-6.1-4.1-9.6-3l-6.6,2l5.2-4.5c2.8-2.4,3.8-6.3,2.5-9.7L10.6,5.8  l8.5,10.8c2.2,2.9,6.1,4.1,9.6,3l6.6-2L30,22C27.3,24.4,26.3,28.3,27.5,31.7z"></path></g></svg>