<svg xmlns="http://www.w3.org/2000/svg" xmlns:xlink="http://www.w3.org/1999/xlink" id="Layer_1" x="0px" y="0px" viewBox="0 0 322 220" style="enable-background:new 0 0 322 220;" xml:space="preserve"><style type="text/css">	.st0{fill:#FDFDFD;}	.st1{fill:#66EDA8;}	.st2{fill:#303867;}	.st3{fill:#FFFFFF;}</style><g>	<path class="st0" d="M156,176.9l-1.2,14.4h-21.5l1.1-14.4H156z"></path>	<path class="st0" d="M157.3,161.4l-1.2,14h-21.6l1.1-14H157.3z"></path>	<path class="st0" d="M158.7,144.2l-1.3,15.8h-21.7l1.2-15.8H158.7z"></path>	<path class="st0" d="M160.1,126.9l-1.3,15.8h-21.7l1.2-15.8C138.3,126.9,160.1,126.9,160.1,126.9z"></path>	<path class="st1" d="M156,176.9l-1.2,14.4h-21.5l1.1-14.4H156z"></path>	<path class="st1" d="M157.3,161.4l-1.2,14h-21.6l1.1-14H157.3z"></path>	<path class="st1" d="M158.7,144.2l-1.3,15.8h-21.7l1.2-15.8H158.7z"></path>	<path class="st1" d="M160.1,126.9l-1.3,15.8h-21.7l1.2-15.8C138.3,126.9,160.1,126.9,160.1,126.9z"></path>	<path class="st2" d="M265.7,212c5-1.9,9.1-5.6,12.1-11.1c3.4-6.2,4.2-12.3,4.2-12.6l0.1-0.8l-8.5-0.4l-1.8-11.9  c-0.3-2.5,0.4-5,1.9-7s3.7-3.3,6.2-3.7h-0.1l-0.2-1.4c-2.8,0.5-5.3,2-7,4.2c-1.8,2.3-2.5,5.2-2.2,8l1.7,11.7h-0.9l-1.8-11.8  c-0.4-3.1,0.5-6.2,2.4-8.7s4.6-4.1,7.7-4.6c-0.1,0-0.1,0-0.2,0l-0.2-1.4c-3.4,0.6-6.4,2.4-8.5,5.1c-2.1,2.8-3.1,6.3-2.6,9.8  l1.7,11.6l-8-0.3l6.9-38.2h-0.8c-0.1,0-4.8-0.3-10.8-0.5l0.8-8.3l0,0c0.2-3.2-0.8-6.3-2.8-8.7c-0.5-0.5-0.9-1-1.5-1.5  c1,0.2,2,0.3,2.9,0.3c6,0,11.5-4,13-10l15.3-59.2c0.9-3.4,0.4-7-1.4-10s-4.7-5.2-8.1-6L127.9,8c-7.1-1.8-14.4,2.6-16.2,9.7  L96.3,76.9c-0.9,3.4-0.4,7,1.4,10c0.9,1.5,2.1,2.8,3.5,3.8c-0.6,0.1-1.1,0.1-1.6,0.2C93,92.1,87.4,94,83,96.6  c-7.5,4.6-11.2,11.2-10.8,19.6c0.2,4.9,2,8.8,5.4,11.7c2.4,2,6.8,4.6,14.6,5.5c3.3,0.4,6.1,0.3,7.5,0.2l-2.5,16.2h0.7h1.3h0.9  l11.1-16.7c6.1-1.4,11.4-3.6,15.5-6.4l-6.6,85.3h-28v0.1l-43-0.1H5v1.4h312V212H265.7z M266.9,149.8l-6.6,36.6h-3.2l0,0l-12.9,0.2  l0,0h-1.8h-0.7l-25.9,0.3l6.7-36.5c1.4-0.1,5.2-0.4,9.9-0.7c0.5,0,1-0.1,1.5-0.1c3.1-0.2,6.4-0.3,9.7-0.4c3.8-0.1,8-0.1,11.9,0  c0.5,0,1,0,1.4,0C261.4,149.6,265.3,149.8,266.9,149.8z M223.7,122l19.5,4.8c-1.8,0.4-3.5,1.2-4.9,2.4c-2.5,2-4.1,4.8-4.5,8  l-1.2,11.1c-6,0.4-10.7,0.8-10.7,0.8h-0.5l-4.3,23.4c-0.2-0.4-0.3-0.9-0.5-1.4c-2.9-7.7-7.4-19.4-5.7-26.8  c1.8-8,8.9-13.4,11.9-15.7l0.4-0.3C225.2,126.7,225,123.9,223.7,122z M253.9,131.8c1.8,2.2,2.7,4.9,2.5,7.7l-0.8,8.4  c-3.9-0.1-8.3-0.2-12.1-0.1c-3.2,0.1-6.5,0.2-9.5,0.4l1.2-10.9c0.4-2.8,1.8-5.3,4-7.1c2.2-1.7,4.9-2.6,7.7-2.3  C249.6,128.3,252.1,129.7,253.9,131.8z M87.8,118c-0.1,0.3-0.3,0.5-0.6,0.7c-0.2,0.2-0.5,0.4-0.9,0.5c-0.3,0.1-0.7,0.2-1,0.2  c-0.4,0.1-0.7,0.1-1.1,0c-0.3,0-0.6-0.1-0.9-0.2s-0.5-0.3-0.7-0.6c-0.2-0.3-0.3-0.6-0.4-1l1.1-0.2c0,0.2,0.1,0.4,0.3,0.6  c0.1,0.2,0.3,0.3,0.5,0.3c0.2,0.1,0.4,0.1,0.6,0.1s0.4,0,0.6,0s0.3-0.1,0.5-0.1c0.2-0.1,0.3-0.1,0.5-0.2c0.1-0.1,0.3-0.2,0.3-0.4  c0.1-0.1,0.1-0.3,0.1-0.5c0-0.3-0.2-0.5-0.4-0.6c-0.2-0.1-0.5-0.2-0.8-0.2s-0.7-0.1-1.1-0.1s-0.7-0.1-1.1-0.2  c-0.3-0.1-0.6-0.2-0.9-0.4c-0.2-0.2-0.4-0.5-0.5-0.9c0-0.3,0-0.6,0.1-0.9s0.3-0.5,0.5-0.7s0.5-0.3,0.7-0.4c0.3-0.1,0.6-0.2,0.9-0.2  c0.4-0.1,0.7-0.1,1-0.1s0.6,0.1,0.9,0.2s0.5,0.3,0.7,0.6c0.2,0.2,0.3,0.6,0.4,1l-1.1,0.2c0-0.2-0.1-0.4-0.2-0.5s-0.2-0.2-0.4-0.3  c-0.2-0.1-0.3-0.1-0.5-0.1s-0.4,0-0.5,0c-0.2,0-0.3,0.1-0.5,0.1s-0.3,0.1-0.4,0.2s-0.2,0.2-0.3,0.3c-0.1,0.1-0.1,0.3-0.1,0.4  c0,0.2,0.1,0.3,0.3,0.4c0.1,0.1,0.3,0.2,0.5,0.2c0.2,0.1,0.5,0.1,0.7,0.1c0.3,0,0.5,0,0.8,0.1c0.3,0,0.6,0.1,0.8,0.1  c0.3,0,0.5,0.1,0.7,0.2s0.4,0.3,0.6,0.5s0.3,0.4,0.3,0.8C87.9,117.4,87.9,117.7,87.8,118z M93.9,117.7c-0.4,0.4-1,0.7-1.8,0.8  c-0.5,0.1-1,0.1-1.4-0.1c-0.4-0.1-0.8-0.3-1.1-0.6c-0.3-0.3-0.6-0.6-0.7-1c-0.2-0.4-0.3-0.9-0.4-1.3c-0.1-0.5-0.1-1,0-1.4  s0.3-0.8,0.5-1.2c0.2-0.3,0.5-0.6,0.9-0.8c0.4-0.2,0.8-0.4,1.2-0.4c0.6-0.1,1.1,0,1.5,0.2s0.8,0.4,1.1,0.8c0.3,0.3,0.5,0.7,0.7,1.1  s0.2,0.8,0.3,1.2l-4.9,0.7c0,0.3,0.1,0.6,0.2,0.8c0.1,0.2,0.3,0.5,0.5,0.6c0.2,0.2,0.4,0.3,0.7,0.4c0.3,0.1,0.6,0.1,1,0  c0.5-0.1,0.8-0.2,1.1-0.5c0.3-0.3,0.4-0.6,0.4-1l1.1-0.2C94.6,116.6,94.4,117.2,93.9,117.7z M100.8,116.6c-0.4,0.5-1.1,0.8-1.9,0.9  c-0.5,0.1-1,0.1-1.4,0s-0.8-0.3-1.1-0.5c-0.3-0.3-0.5-0.6-0.7-1s-0.3-0.8-0.4-1.3s-0.1-1,0-1.4s0.2-0.8,0.4-1.2  c0.2-0.4,0.5-0.7,0.9-0.9c0.4-0.2,0.8-0.4,1.3-0.5c0.4-0.1,0.7-0.1,1.1,0c0.3,0,0.6,0.1,0.9,0.3c0.3,0.2,0.5,0.4,0.7,0.6  c0.2,0.3,0.4,0.6,0.4,1l-1.1,0.2c-0.1-0.4-0.4-0.7-0.7-0.9c-0.3-0.2-0.7-0.3-1.1-0.2c-0.4,0.1-0.7,0.2-0.9,0.4  c-0.2,0.2-0.4,0.4-0.5,0.7c-0.1,0.3-0.2,0.5-0.2,0.9c0,0.3,0,0.6,0,1c0,0.3,0.1,0.6,0.2,0.9s0.3,0.5,0.4,0.7  c0.2,0.2,0.4,0.4,0.7,0.5c0.3,0.1,0.6,0.1,0.9,0.1c0.5-0.1,0.9-0.3,1.2-0.6c0.3-0.3,0.4-0.7,0.4-1.3l1.1-0.2  C101.4,115.4,101.2,116.1,100.8,116.6z M107.4,116.2l-0.1-1l0,0c-0.2,0.4-0.4,0.8-0.7,1c-0.3,0.2-0.7,0.4-1.2,0.5  c-0.4,0.1-0.8,0.1-1.1,0c-0.3-0.1-0.6-0.2-0.8-0.4c-0.2-0.2-0.4-0.4-0.5-0.7c-0.1-0.3-0.2-0.6-0.2-1l-0.6-4.3l1.1-0.2l0.6,4.4  c0.1,0.4,0.2,0.7,0.5,0.9c0.3,0.2,0.6,0.3,1,0.2c0.3,0,0.6-0.1,0.8-0.3c0.2-0.1,0.4-0.3,0.5-0.5s0.2-0.4,0.3-0.7c0-0.3,0-0.5,0-0.8  l-0.5-3.7l1.1-0.2l0.9,6.5L107.4,116.2z M111.5,110.1c-0.3,0.2-0.5,0.4-0.7,0.6c-0.2,0.3-0.2,0.6-0.3,0.9c0,0.3,0,0.7,0,1.1  l0.4,2.9l-1.1,0.2l-0.9-6.5l1-0.1l0.2,1.4l0,0c0.2-0.6,0.4-1,0.8-1.3c0.3-0.3,0.8-0.5,1.4-0.6l0.2,1.1  C112.2,109.8,111.8,109.9,111.5,110.1z M118.6,114.1c-0.4,0.4-1,0.7-1.8,0.8c-0.5,0.1-1,0.1-1.4-0.1c-0.4-0.1-0.8-0.3-1.1-0.6  c-0.3-0.3-0.6-0.6-0.7-1c-0.2-0.4-0.3-0.9-0.4-1.3c-0.1-0.5-0.1-1,0-1.4s0.3-0.8,0.5-1.2c0.2-0.3,0.5-0.6,0.9-0.8  c0.4-0.2,0.8-0.4,1.2-0.4c0.6-0.1,1.1,0,1.5,0.2s0.8,0.4,1.1,0.8c0.3,0.3,0.5,0.7,0.7,1.1s0.2,0.8,0.3,1.2l-4.9,0.7  c0,0.3,0.1,0.6,0.2,0.8c0.1,0.2,0.3,0.5,0.5,0.6c0.2,0.2,0.4,0.3,0.7,0.4c0.3,0.1,0.6,0.1,0.9,0c0.5-0.1,0.8-0.2,1.1-0.5  c0.3-0.3,0.4-0.6,0.4-1l1.1-0.2C119.2,113.1,119,113.7,118.6,114.1z M125.6,113.5l-0.1-0.9l0,0c-0.1,0.4-0.4,0.7-0.7,0.9  c-0.4,0.2-0.8,0.4-1.2,0.4c-0.5,0.1-1,0-1.4-0.1s-0.8-0.3-1-0.6c-0.3-0.3-0.5-0.6-0.7-1s-0.3-0.8-0.4-1.3s-0.1-0.9,0-1.3  s0.2-0.8,0.4-1.2c0.2-0.3,0.5-0.6,0.8-0.9c0.4-0.2,0.8-0.4,1.3-0.5c0.2,0,0.4,0,0.6,0s0.4,0,0.6,0.1s0.4,0.1,0.6,0.2  s0.4,0.2,0.5,0.4l0,0l-0.5-3.4l1.1-0.2l1.3,9L125.6,113.5z M120.3,92.1c-6-1.4-12.2-1.7-16.6-1.5c-1.9-1-3.5-2.5-4.7-4.4  c-1.6-2.7-2.1-5.9-1.3-8.9l1.7-6.5l4.3,1.1c0.6,0.1,1.1,0.2,1.7,0.2c3.1,0,6-2.1,6.8-5.3l8.5-32.8c0.5-1.8,0.2-3.7-0.7-5.2  c-0.9-1.6-2.5-2.7-4.3-3.1l-4.3-1.1l1.7-6.5c1.4-5.4,6.3-9,11.6-9c0.9,0,1.9,0.1,2.8,0.3l147.3,36.4c3.1,0.8,5.6,2.7,7.2,5.4  s2.1,5.9,1.3,8.9L268,119.3c-1.4,5.4-6.3,9-11.6,9c-0.9,0-1.9-0.1-2.8-0.3L132.8,98.1C130,95.4,125.8,93.4,120.3,92.1z   M217.1,120.4c-0.6,0.2-1.2,0.6-1.8,1c-4.2,3.1-6.9,6.5-9.9,12.5c-2.6-4.6-9.9-16.2-16.4-20.5L217.1,120.4z M174.2,119.2  c-1.4,0.1-2.3,0.7-2.7,1.3c-1,1.3-1.1,3.4-0.3,5.1c-0.4,0.1-0.7,0.3-1,0.4l1.3-16.6l-34.3,0.2c0-1.3-0.1-2.7-0.3-4.1  c-0.3-2-1.1-3.9-2.4-5.5l46.9,11.6c-0.1,0.1-0.3,0.2-0.4,0.2c-1,0.7-1.5,1.9-1.5,3.3c-2.3-0.6-3.6-0.2-4.4,0.5  C174.2,116.4,173.9,117.7,174.2,119.2z M121.6,212l6.7-86.3c0.9-0.6,1.6-1.3,2.4-2c3.8-3.6,5.9-7.8,6.4-12.6l32.8-0.2l-1.4,17.3  l0,0l-0.1,1.6l0,0L162,212H121.6z M179.2,190.7c0-0.1-1.4-7.6-2.3-13.7c-1-7.7-2.5-14.1-3.1-16.4l18,0.2l-2.6,30.4l11.8,0.6  c-3.9,4.9-13,16.2-15.3,19l-17.4-18.6c5.1-0.4,10-0.5,10.1-0.5h0.8V190.7z M186.7,212c1.7-2.1,13.1-16.4,16.5-20.5l0.9-1.1  l-13.2-0.6l2.6-30.5l-21.4-0.2l0.2,0.9c0,0.1,1.9,7.7,3.2,17.2c0.7,5,1.7,10.8,2.1,13c-1.8,0.1-6.4,0.3-10.8,0.6l-1.5,0.1  l19.8,21.2h-21.7l6.2-79.1c0.8,1.3,2,2.7,3.6,4c16.4,14,34.5,42.2,39.6,50.5l1.2-0.8c-13.8-22.3-28.7-41.3-39.9-50.8  c-2.6-2.2-4.1-4.4-4.3-6.1l0,0c-0.1-0.5,0-0.9,0.1-1.3c0,0,0,0,0-0.1c0.3-0.9,1.3-1.5,2.5-1.6h0.1c3.5,0,10.8,8.1,13.3,11.3  l1.1-0.9c-1-1.2-9.4-11.6-14.3-11.8c-0.8-1.3-0.9-3.1-0.1-4c0.9-1.1,2.7-1,5.1,0.2c6.6,3.4,12.9,12.9,12.9,12.9l1.2-0.8  c-0.1-0.1-1.6-2.5-4.1-5.4c-3.3-3.9-6.5-6.6-9.4-8.1c-1-0.5-1.8-0.8-2.6-1c-0.3-1.1-0.2-2.1,0.4-2.6c0.5-0.4,2-1.1,6.2,1.2  c6.6,3.7,12.4,13.3,12.5,13.4l1.2-0.7c-0.1-0.1-1.5-2.5-3.9-5.5c-3.2-4-6.2-6.8-9.1-8.4c-0.7-0.4-1.4-0.7-2-1  c-0.1-1.2,0.2-2.2,0.8-2.7c1.1-0.8,3.4-0.2,6.2,1.6c6.5,4.1,14.6,17,16.7,21.3l0.7,1.3l0.6-1.3c3.2-6.6,5.8-10.1,10.1-13.2  c2.9-2.1,5.3-1.2,6.4,0.3c1,1.3,1.2,3.2-0.4,4.4l-0.4,0.3c-3.1,2.4-10.5,8-12.5,16.5c-1.8,7.8,2.6,19.2,5.8,27.6  c0.4,1.2,0.9,2.3,1.2,3.3l0.2-0.1l-2.5,13.6l27.3-0.4c-0.2,1.4-0.5,3.5-0.6,6c-0.1,5.7,1.2,10.5,3.7,13.7c1.4,1.8,3.2,3.2,5.4,4.1  h-62.9V212z M245.5,207c-2.9-3.8-3.4-9-3.4-12.8c0-2.5,0.4-4.7,0.6-6.1l14.3-0.2l0,0l23.4,1c-0.3,1.8-1.3,6.6-3.9,11.3  c-1.9,3.5-4.3,6.2-7.1,8.2c-3.5,2.4-7.6,3.6-12.3,3.6C251.9,212,248,210.3,245.5,207z"></path>	<path class="st0" d="M257.1,188L257.1,188l-14.3,0.2c-0.2,1.3-0.6,3.5-0.6,6.1c-0.1,3.8,0.5,9,3.4,12.8c2.5,3.2,6.4,4.9,11.6,5  c4.7,0.1,8.8-1.1,12.3-3.6c2.8-1.9,5.2-4.7,7.1-8.2c2.6-4.7,3.6-9.5,3.9-11.3L257.1,188z M248.5,195.7l-1.2-0.7  c1.7-2.8,5.1-5.3,7.7-4.6c1.4,0.4,2.9,1.8,2.9,6.2h-1.4c0-1.5-0.2-2.8-0.6-3.6c-0.1-0.2-0.2-0.5-0.4-0.6c0.1,0.2,0.1,0.3,0.1,0.5  c0,0.8-0.7,1.5-1.5,1.5s-1.5-0.7-1.5-1.5c0-0.3,0.1-0.6,0.3-0.9C251.2,192.6,249.4,194.2,248.5,195.7z M271.1,197.9h-1.4  c0.1-3.1-0.7-4.5-1.5-5.1c0.2,0.3,0.3,0.6,0.3,1c0,0.9-0.7,1.6-1.6,1.6s-1.6-0.7-1.6-1.6c0-0.5,0.2-0.9,0.5-1.2  c-1.7,0.5-3.8,2.1-5.1,4.3l-1.2-0.7c1.8-3.1,5.7-5.9,8.5-5.1C269.4,191.5,271.2,193,271.1,197.9z"></path>	<path class="st1" d="M201.1,191.7c-3.9,4.9-13,16.2-15.3,19l-17.4-18.6c5.1-0.4,10-0.5,10.1-0.5h0.8l-0.2-0.8  c0-0.1-1.4-7.6-2.3-13.7c-1-7.7-2.5-14.1-3.1-16.4l18,0.2l-2.6,30.4L201.1,191.7z"></path>	<path class="st0" d="M283.4,60.1l-15.3,59.2c-1.4,5.4-6.3,9-11.6,9c-0.9,0-1.9-0.1-2.8-0.3L132.8,98.1c-2.8-2.7-7-4.7-12.5-6  c-6-1.4-12.2-1.7-16.6-1.5c-1.9-1-3.5-2.5-4.7-4.4c-1.6-2.7-2.1-5.9-1.3-8.9l1.7-6.5l4.3,1.1c0.6,0.1,1.1,0.2,1.7,0.2  c3.1,0,6-2.1,6.8-5.3l8.5-32.8c0.5-1.8,0.2-3.7-0.7-5.2c-0.9-1.6-2.5-2.7-4.3-3.1l-4.3-1.1l1.7-6.5c1.4-5.4,6.3-9,11.6-9  c0.9,0,1.9,0.1,2.8,0.3l147.3,36.4c3.1,0.8,5.6,2.7,7.2,5.4C283.7,53.9,284.2,57,283.4,60.1z"></path>	<path class="st0" d="M137.1,111.1c-0.5,4.7-2.6,9-6.4,12.6c-0.7,0.7-1.5,1.4-2.4,2l-6.7,86.3H162l6.4-82.2l0,0l0.1-1.6l0,0  l1.4-17.3L137.1,111.1z M156.1,192.7h-24.4l0.1-0.8l5.2-66.4h24.7L156.1,192.7z"></path>	<path class="st2" d="M178.9,79.8l6.4-10.5l7.4,1.1l5.8-9.6l10.9,1.7L198.1,83L178.9,79.8z"></path>	<path class="st2" d="M196.9,56.7L191,66.8l-9.7-1.6l6-10.2L196.9,56.7z"></path>	<path class="st1" d="M114.5,149.7L92.1,212v0.1l-43-0.1H37l13-32.3l21.2-0.4L83.1,150l14.1-0.1h0.7h1.3h0.9L114.5,149.7z"></path>	<path class="st1" d="M76.6,139L65,170l-27.8-0.1l12.1-31.3L76.6,139z"></path>	<path class="st2" d="M268.4,14.8l-4.6,16.6l1.4,0.4l4.6-16.6L268.4,14.8z"></path>	<path class="st2" d="M285.3,20.2l-13.8,12.6l1,1.1l13.8-12.6L285.3,20.2z"></path>	<path class="st0" d="M256.8,149.4c-0.5,0-1,0-1.4,0c-3.9-0.1-8.2-0.1-11.9,0c-3.3,0.1-6.6,0.2-9.7,0.4c-0.5,0-1,0.1-1.5,0.1  c-4.7,0.3-8.5,0.6-9.9,0.7l-6.7,36.5l25.9-0.3h0.7h1.8l0,0l12.9-0.2l0,0h3.2l6.6-36.6C265.3,149.8,261.4,149.6,256.8,149.4z   M236.9,179.5c-0.7,0-1.1-0.1-1.1-0.1l-1.4-0.2l0.9-1c0.2-0.3,0.5-0.5,0.8-0.8c-2.6,0.6-4.8,0-4.8,0l-0.5-0.2v-1l0.5-0.2  c1.9-0.7,7.7-4.8,9.5-8.4l1.3,0.7c-1.5,3-5.4,6.2-8.1,7.9c1.5,0,3.6-0.5,5.3-2.1c0.3-0.3,0.8-0.3,1,0c0.4,0.4,0.2,0.8,0,1l0,0l0,0  c0,0.1-0.1,0.1-0.1,0.1c-0.1,0.1-0.3,0.3-0.4,0.5c-0.4,0.4-0.9,0.9-1.3,1.4c-0.3,0.3-0.6,0.6-0.8,0.9c1.6-0.1,4-0.6,6.2-2.6l1,1.1  C241.8,179.1,238.5,179.5,236.9,179.5z M251.9,162.7c-2,2.1-4.8,2.4-6,2.3c-0.7-0.1-2.2-0.3-3.3-1.2c-1.6,1.3-3.3,1.8-4.9,1.8  c-0.8,0-1.5-0.1-2.1-0.4c-1.1-0.5-1.9-1.4-2.4-2.5c-0.7-1.8-0.4-4.1,0.6-6.3l1.3,0.6c-0.9,1.8-1.1,3.8-0.5,5.1  c0.3,0.8,0.9,1.4,1.6,1.7c1.4,0.6,3.5,0.3,5.4-1.2c-0.7-1.1-0.8-2.6-0.3-4.3c0.5-1.9,1.5-3.1,2.7-3.3c0.6-0.1,1.2,0.1,1.6,0.6  c0.7,0.9,0.6,2.6-0.3,4.6c-0.5,1-1,1.9-1.7,2.6c0.9,0.6,2,0.7,2.4,0.8c0.8,0.1,3.1-0.1,4.8-1.9c1.4-1.4,1.9-3.6,1.6-6.3l1.4-0.2  C254.2,158.4,253.6,161,251.9,162.7z"></path>	<path class="st0" d="M244.7,176.4c-2.9,2.6-6.1,3-7.8,3c-0.7,0-1.1-0.1-1.1-0.1l-1.4-0.2l0.9-1c0.2-0.3,0.5-0.5,0.8-0.8  c-2.6,0.6-4.8,0-4.8,0l-0.5-0.2v-1l0.5-0.2c1.9-0.7,7.7-4.8,9.5-8.4l1.3,0.7c-1.5,3-5.4,6.2-8.1,7.9c1.5,0,3.6-0.5,5.3-2.1  c0.3-0.3,0.8-0.3,1,0c0.4,0.4,0.2,0.8,0,1l0,0l0,0c0,0.1-0.1,0.1-0.1,0.1c-0.1,0.1-0.3,0.3-0.4,0.5c-0.4,0.4-0.9,0.9-1.3,1.4  c-0.3,0.3-0.6,0.6-0.8,0.9c1.6-0.1,4-0.6,6.2-2.6L244.7,176.4z"></path>	<path class="st0" d="M251.9,162.7c-2,2.1-4.8,2.4-6,2.3c-0.7-0.1-2.2-0.3-3.3-1.2c-1.6,1.3-3.3,1.8-4.9,1.8c-0.8,0-1.5-0.1-2.1-0.4  c-1.1-0.5-1.9-1.4-2.4-2.5c-0.7-1.8-0.4-4.1,0.6-6.3l1.3,0.6c-0.9,1.8-1.1,3.8-0.5,5.1c0.3,0.8,0.9,1.4,1.6,1.7  c1.4,0.6,3.5,0.3,5.4-1.2c-0.7-1.1-0.8-2.6-0.3-4.3c0.5-1.9,1.5-3.1,2.7-3.3c0.6-0.1,1.2,0.1,1.6,0.6c0.7,0.9,0.6,2.6-0.3,4.6  c-0.5,1-1,1.9-1.7,2.6c0.9,0.6,2,0.7,2.4,0.8c0.8,0.1,3.1-0.1,4.8-1.9c1.4-1.4,1.9-3.6,1.6-6.3l1.4-0.2  C254.2,158.4,253.6,161,251.9,162.7z"></path>	<path class="st2" d="M87.8,118c-0.1,0.3-0.3,0.5-0.6,0.7c-0.2,0.2-0.5,0.4-0.9,0.5c-0.3,0.1-0.7,0.2-1,0.2c-0.4,0.1-0.7,0.1-1.1,0  c-0.3,0-0.6-0.1-0.9-0.2s-0.5-0.3-0.7-0.6c-0.2-0.3-0.3-0.6-0.4-1l1.1-0.2c0,0.2,0.1,0.4,0.3,0.6c0.1,0.2,0.3,0.3,0.5,0.3  c0.2,0.1,0.4,0.1,0.6,0.1s0.4,0,0.6,0s0.3-0.1,0.5-0.1c0.2-0.1,0.3-0.1,0.5-0.2c0.1-0.1,0.3-0.2,0.3-0.4c0.1-0.1,0.1-0.3,0.1-0.5  c0-0.3-0.2-0.5-0.4-0.6c-0.2-0.1-0.5-0.2-0.8-0.2s-0.7-0.1-1.1-0.1s-0.7-0.1-1.1-0.2c-0.3-0.1-0.6-0.2-0.9-0.4  c-0.2-0.2-0.4-0.5-0.5-0.9c0-0.3,0-0.6,0.1-0.9s0.3-0.5,0.5-0.7s0.5-0.3,0.7-0.4c0.3-0.1,0.6-0.2,0.9-0.2c0.4-0.1,0.7-0.1,1-0.1  s0.6,0.1,0.9,0.2s0.5,0.3,0.7,0.6c0.2,0.2,0.3,0.6,0.4,1l-1.1,0.2c0-0.2-0.1-0.4-0.2-0.5s-0.2-0.2-0.4-0.3  c-0.2-0.1-0.3-0.1-0.5-0.1s-0.4,0-0.5,0c-0.2,0-0.3,0.1-0.5,0.1s-0.3,0.1-0.4,0.2s-0.2,0.2-0.3,0.3c-0.1,0.1-0.1,0.3-0.1,0.4  c0,0.2,0.1,0.3,0.3,0.4c0.1,0.1,0.3,0.2,0.5,0.2s0.5,0.1,0.7,0.1c0.3,0,0.5,0,0.8,0.1c0.3,0,0.6,0.1,0.8,0.1c0.3,0,0.5,0.1,0.7,0.2  s0.4,0.3,0.6,0.5s0.3,0.4,0.3,0.8C87.9,117.4,87.9,117.7,87.8,118z"></path>	<path class="st2" d="M94.6,115.9c0,0.8-0.3,1.4-0.7,1.8c-0.4,0.4-1,0.7-1.8,0.8c-0.5,0.1-1,0.1-1.4-0.1c-0.4-0.1-0.8-0.3-1.1-0.6  c-0.3-0.3-0.6-0.6-0.7-1c-0.2-0.4-0.3-0.9-0.4-1.3c-0.1-0.5-0.1-1,0-1.4s0.3-0.8,0.5-1.2c0.2-0.3,0.5-0.6,0.9-0.8  c0.4-0.2,0.8-0.4,1.2-0.4c0.6-0.1,1.1,0,1.5,0.2s0.8,0.4,1.1,0.8c0.3,0.3,0.5,0.7,0.7,1.1s0.2,0.8,0.3,1.2l-4.9,0.7  c0,0.3,0.1,0.6,0.2,0.8c0.1,0.2,0.3,0.5,0.5,0.6c0.2,0.2,0.4,0.3,0.7,0.4c0.3,0.1,0.6,0.1,1,0c0.5-0.1,0.8-0.2,1.1-0.5  c0.3-0.3,0.4-0.6,0.4-1L94.6,115.9z"></path>	<path class="st2" d="M99.2,149.8l-1.6,2.4l0.4-2.4H99.2z"></path>	<path class="st2" d="M101.4,114.6c0,0.8-0.2,1.5-0.6,2s-1.1,0.8-1.9,0.9c-0.5,0.1-1,0.1-1.4,0s-0.8-0.3-1.1-0.5  c-0.3-0.3-0.5-0.6-0.7-1s-0.3-0.8-0.4-1.3s-0.1-1,0-1.4s0.2-0.8,0.4-1.2c0.2-0.4,0.5-0.7,0.9-0.9c0.4-0.2,0.8-0.4,1.3-0.5  c0.4-0.1,0.7-0.1,1.1,0c0.3,0,0.6,0.1,0.9,0.3c0.3,0.2,0.5,0.4,0.7,0.6c0.2,0.3,0.4,0.6,0.4,1l-1.1,0.2c-0.1-0.4-0.4-0.7-0.7-0.9  c-0.3-0.2-0.7-0.3-1.1-0.2c-0.4,0.1-0.7,0.2-0.9,0.4c-0.2,0.2-0.4,0.4-0.5,0.7c-0.1,0.3-0.2,0.5-0.2,0.9c0,0.3,0,0.6,0,1  c0,0.3,0.1,0.6,0.2,0.9s0.3,0.5,0.4,0.7c0.2,0.2,0.4,0.4,0.7,0.5c0.3,0.1,0.6,0.1,0.9,0.1c0.5-0.1,0.9-0.3,1.2-0.6  c0.3-0.3,0.4-0.7,0.4-1.3L101.4,114.6z"></path>	<path class="st2" d="M108.4,116l-1,0.1l-0.1-1l0,0c-0.2,0.4-0.4,0.8-0.7,1c-0.3,0.2-0.7,0.4-1.2,0.5c-0.4,0.1-0.8,0.1-1.1,0  c-0.3-0.1-0.6-0.2-0.8-0.4c-0.2-0.2-0.4-0.4-0.5-0.7c-0.1-0.3-0.2-0.6-0.2-1l-0.6-4.3l1.1-0.2l0.6,4.4c0.1,0.4,0.2,0.7,0.5,0.9  c0.3,0.2,0.6,0.3,1,0.2c0.3,0,0.6-0.1,0.8-0.3c0.2-0.1,0.4-0.3,0.5-0.5s0.2-0.4,0.3-0.7c0-0.3,0-0.5,0-0.8l-0.5-3.7l1.1-0.2  L108.4,116z"></path>	<path class="st2" d="M112.6,109.7c-0.4,0.1-0.8,0.2-1.1,0.3c-0.3,0.2-0.5,0.4-0.7,0.6c-0.2,0.3-0.2,0.6-0.3,0.9c0,0.3,0,0.7,0,1.1  l0.4,2.9l-1.1,0.2l-0.9-6.5l1-0.1l0.2,1.4l0,0c0.2-0.6,0.4-1,0.8-1.3c0.3-0.3,0.8-0.5,1.4-0.6L112.6,109.7z"></path>	<path class="st2" d="M119.3,112.3c0,0.8-0.3,1.4-0.7,1.8c-0.4,0.4-1,0.7-1.8,0.8c-0.5,0.1-1,0.1-1.4-0.1c-0.4-0.1-0.8-0.3-1.1-0.6  c-0.3-0.3-0.6-0.6-0.7-1c-0.2-0.4-0.3-0.9-0.4-1.3c-0.1-0.5-0.1-1,0-1.4s0.3-0.8,0.5-1.2c0.2-0.3,0.5-0.6,0.9-0.8  c0.4-0.2,0.8-0.4,1.2-0.4c0.6-0.1,1.1,0,1.5,0.2s0.8,0.4,1.1,0.8c0.3,0.3,0.5,0.7,0.7,1.1s0.2,0.8,0.3,1.2l-4.9,0.7  c0,0.3,0.1,0.6,0.2,0.8c0.1,0.2,0.3,0.5,0.5,0.6c0.2,0.2,0.4,0.3,0.7,0.4c0.3,0.1,0.6,0.1,0.9,0c0.5-0.1,0.8-0.2,1.1-0.5  c0.3-0.3,0.4-0.6,0.4-1L119.3,112.3z"></path>	<path class="st2" d="M126.6,113.4l-1.1,0.2l-0.1-0.9l0,0c-0.1,0.4-0.4,0.7-0.7,0.9c-0.4,0.2-0.8,0.4-1.2,0.4c-0.5,0.1-1,0-1.4-0.1  s-0.8-0.3-1-0.6c-0.3-0.3-0.5-0.6-0.7-1s-0.3-0.8-0.4-1.3s-0.1-0.9,0-1.3s0.2-0.8,0.4-1.2c0.2-0.3,0.5-0.6,0.8-0.9  c0.4-0.2,0.8-0.4,1.3-0.5c0.2,0,0.4,0,0.6,0s0.4,0,0.6,0.1s0.4,0.1,0.6,0.2s0.4,0.2,0.5,0.4l0,0l-0.5-3.4l1.1-0.2L126.6,113.4z"></path>	<path class="st2" d="M99.2,149.8h-1.3h-0.7l-0.9,5.6l3.7-5.6H99.2z"></path>	<path class="st2" d="M253.8,155.2l-1.4,0.2c0.3,2.8-0.2,4.9-1.6,6.3c-1.7,1.7-4,1.9-4.8,1.9c-0.4,0-1.5-0.2-2.4-0.8  c0.6-0.7,1.2-1.6,1.7-2.6c0.9-2,1-3.6,0.3-4.6c-0.4-0.5-1-0.7-1.6-0.6c-1.1,0.2-2.1,1.5-2.7,3.3c-0.5,1.7-0.4,3.2,0.3,4.3  c-1.9,1.5-4.1,1.8-5.4,1.2c-0.8-0.3-1.3-0.9-1.6-1.7c-0.5-1.4-0.3-3.3,0.5-5.1l-1.3-0.6c-1,2.2-1.2,4.5-0.6,6.3  c0.4,1.2,1.3,2.1,2.4,2.5c0.6,0.3,1.3,0.4,2.1,0.4c1.5,0,3.3-0.5,4.9-1.8c1.2,0.9,2.6,1.1,3.3,1.2c1.2,0.1,4-0.3,6-2.3  C253.6,161,254.2,158.4,253.8,155.2z M242.8,158.8c0.5-1.7,1.2-2.3,1.5-2.3c0,0,0,0,0.1,0s0.1,0,0.1,0.1c0.2,0.3,0.4,1.3-0.5,3.1  c-0.4,0.8-0.8,1.5-1.3,2C242.4,161,242.4,160,242.8,158.8z"></path>	<path class="st2" d="M244.7,176.4c-2.9,2.6-6.1,3-7.8,3c-0.7,0-1.1-0.1-1.1-0.1l-1.4-0.2l0.9-1c0.2-0.3,0.5-0.5,0.8-0.8  c-2.6,0.6-4.8,0-4.8,0l-0.5-0.2v-1l0.5-0.2c1.9-0.7,7.7-4.8,9.5-8.4l1.3,0.7c-1.5,3-5.4,6.2-8.1,7.9c1.5,0,3.6-0.5,5.3-2.1  c0.3-0.3,0.8-0.3,1,0c0.4,0.4,0.2,0.8,0,1l0,0l0,0c0,0.1-0.1,0.1-0.1,0.1c-0.1,0.1-0.3,0.3-0.4,0.5c-0.4,0.4-0.9,0.9-1.3,1.4  c-0.3,0.3-0.6,0.6-0.8,0.9c1.6-0.1,4-0.6,6.2-2.6L244.7,176.4z"></path>	<path class="st2" d="M257.8,196.6h-1.4c0-1.5-0.2-2.8-0.6-3.6c-0.1-0.2-0.2-0.5-0.4-0.6c0.1,0.2,0.1,0.3,0.1,0.5  c0,0.8-0.7,1.5-1.5,1.5s-1.5-0.7-1.5-1.5c0-0.3,0.1-0.6,0.3-0.9c-1.6,0.6-3.3,2.2-4.3,3.8l-1.2-0.7c1.7-2.8,5.1-5.3,7.7-4.6  C256.3,190.8,257.9,192.2,257.8,196.6z"></path>	<path class="st2" d="M258.3,205.4l-1.4-0.3c0.6-3.4,0.1-4.5-0.1-4.6l0,0c-0.4,0-1.7,1.3-2.5,4.6l-1.4-0.3c0.9-3.6,2.6-6,4.2-5.7  C258.1,199.4,259.1,200.7,258.3,205.4z"></path>	<path class="st2" d="M271.1,197.9h-1.4c0.1-3.1-0.7-4.5-1.5-5.1c0.2,0.3,0.3,0.6,0.3,1c0,0.9-0.7,1.6-1.6,1.6s-1.6-0.7-1.6-1.6  c0-0.5,0.2-0.9,0.5-1.2c-1.7,0.5-3.8,2.1-5.1,4.3l-1.2-0.7c1.8-3.1,5.7-5.9,8.5-5.1C269.4,191.5,271.2,193,271.1,197.9z"></path>	<path class="st2" d="M279.6,162L279.6,162C279.5,162,279.5,162,279.6,162c-0.1,0-0.2,0-0.2,0l-0.2-1.4h0.1h0.1c0,0,0,0,0.1,0l0,0  L279.6,162z"></path>	<path class="st2" d="M294.8,174.4l-1.4,0.2l-0.4-2.8c-0.5-3.1-2.3-5.8-4.8-7.6s-5.5-2.6-8.6-2.2c0,0,0,0-0.1,0s-0.1,0-0.2,0  l-0.2-1.4l0,0h0.1h0.1c0,0,0,0,0.1,0c3.4-0.5,6.8,0.4,9.6,2.4c2.9,2.1,4.8,5.1,5.4,8.6l0,0L294.8,174.4z"></path>	<path class="st2" d="M280,164.7C279.9,164.7,279.9,164.7,280,164.7c-0.1,0-0.2,0-0.2,0l-0.2-1.4h0.1l0,0l0,0L280,164.7z"></path>	<path class="st2" d="M292.5,174.8l-1.4,0.2l-0.4-2.5c-0.4-2.5-1.8-4.6-3.8-6.1s-4.5-2.1-6.9-1.7h-0.1l-0.2-1.4l0,0h0.1l0,0l0,0  c2.8-0.4,5.6,0.3,7.9,2c2.4,1.7,3.9,4.2,4.4,7.1l0,0L292.5,174.8z"></path>	<path class="st2" d="M137,125.5l-5.2,66.4l-0.1,0.8h24.4l5.6-67.2H137z M154.8,191.3h-21.5l1.1-14.4H156L154.8,191.3z M156.1,175.4  h-21.6l1.1-14h21.7L156.1,175.4z M157.4,160h-21.7l1.2-15.8h21.7L157.4,160z M137.1,142.7l1.2-15.8h21.8l-1.3,15.8H137.1z"></path>	<path class="st2" d="M92.1,212L92.1,212h-43H92.1z"></path>	<path class="st3" d="M87.9,117c0-0.3-0.1-0.6-0.3-0.8c-0.2-0.2-0.3-0.3-0.6-0.5c-0.2-0.1-0.5-0.2-0.7-0.2c-0.3,0-0.5-0.1-0.8-0.1  s-0.5,0-0.8-0.1c-0.3,0-0.5-0.1-0.7-0.1c-0.2-0.1-0.4-0.1-0.5-0.2c-0.2-0.1-0.2-0.2-0.3-0.4c0-0.2,0-0.3,0.1-0.4s0.2-0.2,0.3-0.3  c0.1-0.1,0.3-0.2,0.4-0.2c0.2,0,0.3-0.1,0.5-0.1s0.4,0,0.5,0c0.2,0,0.3,0.1,0.5,0.1c0.2,0.1,0.3,0.2,0.4,0.3  c0.1,0.1,0.2,0.3,0.2,0.5l1.1-0.2c-0.1-0.4-0.2-0.7-0.4-1c-0.2-0.2-0.4-0.4-0.7-0.6c-0.3-0.1-0.6-0.2-0.9-0.2s-0.7,0-1,0.1  c-0.3,0-0.6,0.1-0.9,0.2s-0.5,0.3-0.7,0.4c-0.2,0.2-0.4,0.4-0.5,0.7c-0.1,0.3-0.1,0.6-0.1,0.9c0.1,0.4,0.2,0.7,0.5,0.9  c0.2,0.2,0.5,0.4,0.9,0.4c0.3,0.1,0.7,0.1,1.1,0.2c0.4,0,0.7,0,1.1,0.1c0.3,0,0.6,0.1,0.8,0.2c0.2,0.1,0.4,0.3,0.4,0.6  c0,0.2,0,0.4-0.1,0.5s-0.2,0.3-0.3,0.4c-0.1,0.1-0.3,0.2-0.5,0.2c-0.2,0.1-0.4,0.1-0.5,0.1c-0.2,0-0.4,0-0.6,0s-0.4-0.1-0.6-0.1  c-0.2-0.1-0.3-0.2-0.5-0.3c-0.1-0.1-0.2-0.3-0.3-0.6l-1.1,0.2c0.1,0.4,0.2,0.7,0.4,1c0.2,0.3,0.4,0.5,0.7,0.6  c0.3,0.1,0.6,0.2,0.9,0.2s0.7,0,1.1,0c0.3,0,0.7-0.1,1-0.2s0.6-0.3,0.9-0.5c0.2-0.2,0.4-0.4,0.6-0.7  C87.9,117.7,87.9,117.4,87.9,117z"></path>	<path class="st3" d="M93.6,116c0,0.4-0.2,0.8-0.4,1c-0.3,0.3-0.6,0.4-1.1,0.5c-0.4,0.1-0.7,0-1,0c-0.3-0.1-0.5-0.2-0.7-0.4  c-0.2-0.2-0.4-0.4-0.5-0.6s-0.2-0.5-0.2-0.8l4.9-0.7c0-0.4-0.1-0.8-0.3-1.2c-0.2-0.4-0.4-0.8-0.7-1.1c-0.3-0.3-0.6-0.6-1.1-0.8  c-0.4-0.2-0.9-0.2-1.5-0.2c-0.4,0.1-0.8,0.2-1.2,0.4c-0.4,0.2-0.6,0.5-0.9,0.8c-0.2,0.3-0.4,0.7-0.5,1.2c-0.1,0.4-0.1,0.9,0,1.4  s0.2,0.9,0.4,1.3c0.2,0.4,0.4,0.7,0.7,1c0.3,0.3,0.7,0.5,1.1,0.6s0.9,0.1,1.4,0.1c0.7-0.1,1.3-0.4,1.8-0.8c0.4-0.4,0.7-1,0.7-1.8  L93.6,116z M89.6,114.7c0-0.3,0-0.5,0.1-0.7s0.2-0.5,0.3-0.6c0.1-0.2,0.3-0.4,0.5-0.5s0.5-0.2,0.7-0.3c0.3,0,0.5,0,0.8,0  c0.2,0.1,0.4,0.2,0.6,0.3c0.2,0.1,0.3,0.3,0.5,0.5c0.1,0.2,0.2,0.4,0.3,0.7L89.6,114.7z"></path>	<path class="st3" d="M100.3,114.7c0,0.5-0.1,0.9-0.4,1.3c-0.3,0.3-0.7,0.5-1.2,0.6c-0.3,0-0.6,0-0.9-0.1s-0.5-0.3-0.7-0.5  s-0.3-0.4-0.4-0.7c-0.1-0.3-0.2-0.6-0.2-0.9s-0.1-0.7,0-1c0-0.3,0.1-0.6,0.2-0.9s0.3-0.5,0.5-0.7s0.6-0.3,0.9-0.4  c0.5-0.1,0.8,0,1.1,0.2c0.3,0.2,0.5,0.5,0.7,0.9l1.1-0.2c-0.1-0.4-0.2-0.7-0.4-1c-0.2-0.3-0.4-0.5-0.7-0.6  c-0.3-0.2-0.6-0.2-0.9-0.3c-0.3,0-0.7,0-1.1,0c-0.5,0.1-1,0.2-1.3,0.5c-0.4,0.2-0.7,0.5-0.9,0.9c-0.2,0.4-0.4,0.8-0.4,1.2  c-0.1,0.4-0.1,0.9,0,1.4s0.2,0.9,0.4,1.3c0.2,0.4,0.4,0.7,0.7,1c0.3,0.3,0.7,0.4,1.1,0.5s0.9,0.1,1.4,0c0.8-0.1,1.5-0.4,1.9-0.9  s0.6-1.2,0.6-2L100.3,114.7z"></path>	<path class="st3" d="M107.4,109.5l-1.1,0.2l0.5,3.7c0,0.3,0,0.6,0,0.8c0,0.3-0.1,0.5-0.3,0.7c-0.1,0.2-0.3,0.4-0.5,0.5  s-0.5,0.2-0.8,0.3c-0.4,0.1-0.8,0-1-0.2c-0.3-0.2-0.4-0.5-0.5-0.9l-0.6-4.4l-1.1,0.2l0.6,4.3c0.1,0.4,0.1,0.7,0.2,1  s0.3,0.5,0.5,0.7s0.5,0.3,0.8,0.4s0.7,0.1,1.1,0c0.5-0.1,0.9-0.2,1.2-0.5c0.3-0.2,0.6-0.6,0.7-1l0,0l0.1,1l1-0.1L107.4,109.5z"></path>	<path class="st3" d="M112.4,108.6c-0.6,0.1-1.1,0.3-1.4,0.6c-0.3,0.3-0.6,0.7-0.8,1.3l0,0l-0.2-1.4l-1,0.1l0.9,6.5l1.1-0.2  l-0.4-2.9c-0.1-0.4-0.1-0.8,0-1.1c0-0.3,0.1-0.6,0.3-0.9c0.2-0.3,0.4-0.5,0.7-0.6c0.3-0.2,0.6-0.3,1.1-0.3L112.4,108.6z"></path>	<path class="st3" d="M118.2,112.5c0,0.4-0.2,0.8-0.4,1c-0.3,0.3-0.6,0.4-1.1,0.5c-0.4,0.1-0.7,0-0.9,0c-0.3-0.1-0.5-0.2-0.7-0.4  c-0.2-0.2-0.4-0.4-0.5-0.6s-0.2-0.5-0.2-0.8l4.9-0.7c0-0.4-0.1-0.8-0.3-1.2c-0.2-0.4-0.4-0.8-0.7-1.1c-0.3-0.3-0.6-0.6-1.1-0.8  c-0.4-0.2-0.9-0.2-1.5-0.2c-0.4,0.1-0.8,0.2-1.2,0.4c-0.4,0.2-0.6,0.5-0.9,0.8c-0.2,0.3-0.4,0.7-0.5,1.2c-0.1,0.4-0.1,0.9,0,1.4  s0.2,0.9,0.4,1.3c0.2,0.4,0.4,0.7,0.7,1c0.3,0.3,0.7,0.5,1.1,0.6s0.9,0.1,1.4,0.1c0.7-0.1,1.3-0.4,1.8-0.8c0.4-0.4,0.7-1,0.7-1.8  L118.2,112.5z M114.2,111.2c0-0.3,0-0.5,0.1-0.7s0.2-0.5,0.3-0.6c0.1-0.2,0.3-0.4,0.5-0.5s0.5-0.2,0.7-0.3c0.3,0,0.5,0,0.8,0  c0.2,0.1,0.4,0.2,0.6,0.3c0.2,0.1,0.3,0.3,0.5,0.5c0.1,0.2,0.2,0.4,0.3,0.7L114.2,111.2z"></path>	<path class="st3" d="M125.3,104.4l-1.1,0.2l0.5,3.4l0,0c-0.1-0.2-0.3-0.3-0.5-0.4s-0.4-0.2-0.6-0.2c-0.2-0.1-0.4-0.1-0.6-0.1  s-0.4,0-0.6,0c-0.5,0.1-0.9,0.2-1.3,0.5c-0.3,0.2-0.6,0.5-0.8,0.9c-0.2,0.3-0.3,0.7-0.4,1.2c-0.1,0.4-0.1,0.9,0,1.3  c0.1,0.5,0.2,0.9,0.4,1.3c0.2,0.4,0.4,0.7,0.7,1c0.3,0.3,0.6,0.5,1,0.6s0.9,0.2,1.4,0.1s0.9-0.2,1.2-0.4c0.4-0.2,0.6-0.5,0.7-0.9  l0,0l0.1,0.9l1.1-0.2L125.3,104.4z M125.2,111.2c0,0.3-0.1,0.6-0.2,0.8c-0.1,0.3-0.3,0.5-0.5,0.7s-0.5,0.3-0.9,0.3  c-0.3,0.1-0.7,0-0.9-0.1c-0.3-0.1-0.5-0.2-0.7-0.5c-0.2-0.2-0.4-0.4-0.5-0.7c-0.1-0.3-0.2-0.6-0.2-0.9s-0.1-0.6,0-1  c0-0.3,0.1-0.6,0.2-0.9s0.3-0.5,0.5-0.7s0.5-0.3,0.9-0.3c0.4-0.1,0.7,0,1,0.1s0.5,0.3,0.7,0.5s0.4,0.5,0.5,0.7  c0.1,0.3,0.2,0.6,0.2,0.9C125.2,110.6,125.2,110.9,125.2,111.2z"></path></g></svg>